<?xml version="1.0" encoding="UTF-8"?>
<svg preserveAspectRatio="none" version="1.1" viewBox="0 0 1440 560" xmlns="http://www.w3.org/2000/svg">
<g fill="none" mask="url(#b)">
<path d="m-103.05 380.24" stroke="rgba(23, 23, 23, 1)" stroke-width="1.5"/>
<path d="m-103.05 380.24 18.77 129.02" stroke="rgba(23, 23, 23, 1)" stroke-width="1.5"/>
<path d="m-103.05 380.24 180.38-37.87" stroke="rgba(23, 23, 23, 1)" stroke-width="1.5"/>
<path d="M-103.05 380.24L92.13 498.8" stroke="rgba(23, 23, 23, 1)" stroke-width="1.5"/>
<path d="m-103.05 380.24 292.71-6.85" stroke="rgba(23, 23, 23, 1)" stroke-width="1.5"/>
<path d="m-103.05 380.24 30.72 302.77" stroke="rgba(23, 23, 23, 1)" stroke-width="1.5"/>
<path d="m-84.28 509.26" stroke="rgba(23, 23, 23, 1)" stroke-width="1.5"/>
<path d="m-84.28 509.26 11.95 173.75" stroke="rgba(23, 23, 23, 1)" stroke-width="1.5"/>
<path d="m-72.33 683.01" stroke="rgba(23, 23, 23, 1)" stroke-width="1.5"/>
<path d="m-72.33 683.01 133.15-3.4" stroke="rgba(23, 23, 23, 1)" stroke-width="1.5"/>
<path d="M-72.33 683.01L92.13 498.8" stroke="rgba(23, 23, 23, 1)" stroke-width="1.5"/>
<path d="m-72.33 683.01 297.44-15.36" stroke="rgba(23, 23, 23, 1)" stroke-width="1.5"/>
<path d="M-72.33 683.01L77.33 342.37" stroke="rgba(23, 23, 23, 1)" stroke-width="1.5"/>
<path d="m77.33 342.37" stroke="rgba(23, 23, 23, 1)" stroke-width="1.5"/>
<path d="m77.33 342.37 112.33 31.02" stroke="rgba(23, 23, 23, 1)" stroke-width="1.5"/>
<path d="m77.33 342.37 14.8 156.43" stroke="rgba(23, 23, 23, 1)" stroke-width="1.5"/>
<path d="m77.33 342.37-161.61 166.89" stroke="rgba(23, 23, 23, 1)" stroke-width="1.5"/>
<path d="m77.33 342.37 289.73 25.86" stroke="rgba(23, 23, 23, 1)" stroke-width="1.5"/>
<path d="m77.33 342.37-16.51 337.24" stroke="rgba(23, 23, 23, 1)" stroke-width="1.5"/>
<path d="m92.13 498.8" stroke="rgba(23, 23, 23, 1)" stroke-width="1.5"/>
<path d="m92.13 498.8 97.53-125.41" stroke="rgba(23, 23, 23, 1)" stroke-width="1.5"/>
<path d="m60.82 679.61" stroke="rgba(23, 23, 23, 1)" stroke-width="1.5"/>
<path d="m60.82 679.61 164.29-11.96" stroke="rgba(23, 23, 23, 1)" stroke-width="1.5"/>
<path d="M60.82 679.61L92.13 498.8" stroke="rgba(23, 23, 23, 1)" stroke-width="1.5"/>
<path d="m189.66 373.39" stroke="rgba(23, 23, 23, 1)" stroke-width="1.5"/>
<path d="m189.66 373.39 177.4-5.16" stroke="rgba(23, 23, 23, 1)" stroke-width="1.5"/>
<path d="m225.11 667.65" stroke="rgba(23, 23, 23, 1)" stroke-width="1.5"/>
<path d="m225.11 667.65 128.27 18.34" stroke="rgba(23, 23, 23, 1)" stroke-width="1.5"/>
<path d="m225.11 667.65 126.47-121.29" stroke="rgba(23, 23, 23, 1)" stroke-width="1.5"/>
<path d="M225.11 667.65L92.13 498.8" stroke="rgba(23, 23, 23, 1)" stroke-width="1.5"/>
<path d="m225.11 667.65-35.45-294.26" stroke="rgba(23, 23, 23, 1)" stroke-width="1.5"/>
<path d="m367.06 368.23" stroke="rgba(23, 23, 23, 1)" stroke-width="1.5"/>
<path d="m367.06 368.23 131.86 37.94" stroke="rgba(23, 23, 23, 1)" stroke-width="1.5"/>
<path d="m351.58 546.36" stroke="rgba(23, 23, 23, 1)" stroke-width="1.5"/>
<path d="m351.58 546.36 1.8 139.63" stroke="rgba(23, 23, 23, 1)" stroke-width="1.5"/>
<path d="m351.58 546.36 15.48-178.13" stroke="rgba(23, 23, 23, 1)" stroke-width="1.5"/>
<path d="m351.58 546.36 147.34-140.19" stroke="rgba(23, 23, 23, 1)" stroke-width="1.5"/>
<path d="m351.58 546.36 208.05 8.38" stroke="rgba(23, 23, 23, 1)" stroke-width="1.5"/>
<path d="m351.58 546.36 170.7 129.4" stroke="rgba(23, 23, 23, 1)" stroke-width="1.5"/>
<path d="m353.38 685.99" stroke="rgba(23, 23, 23, 1)" stroke-width="1.5"/>
<path d="m498.92 406.17" stroke="rgba(23, 23, 23, 1)" stroke-width="1.5"/>
<path d="m498.92 406.17 150.59-43.37" stroke="rgba(23, 23, 23, 1)" stroke-width="1.5"/>
<path d="m498.92 406.17 60.71 148.57" stroke="rgba(23, 23, 23, 1)" stroke-width="1.5"/>
<path d="m498.92 406.17 164.37 118.04" stroke="rgba(23, 23, 23, 1)" stroke-width="1.5"/>
<path d="m559.63 554.74" stroke="rgba(23, 23, 23, 1)" stroke-width="1.5"/>
<path d="m559.63 554.74 103.66-30.53" stroke="rgba(23, 23, 23, 1)" stroke-width="1.5"/>
<path d="m559.63 554.74-37.35 121.02" stroke="rgba(23, 23, 23, 1)" stroke-width="1.5"/>
<path d="m559.63 554.74 140.42 82.99" stroke="rgba(23, 23, 23, 1)" stroke-width="1.5"/>
<path d="m559.63 554.74 89.88-191.94" stroke="rgba(23, 23, 23, 1)" stroke-width="1.5"/>
<path d="m522.28 675.76" stroke="rgba(23, 23, 23, 1)" stroke-width="1.5"/>
<path d="m522.28 675.76-168.9 10.23" stroke="rgba(23, 23, 23, 1)" stroke-width="1.5"/>
<path d="m649.51 362.8" stroke="rgba(23, 23, 23, 1)" stroke-width="1.5"/>
<path d="m649.51 362.8 13.78 161.41" stroke="rgba(23, 23, 23, 1)" stroke-width="1.5"/>
<path d="m663.29 524.21" stroke="rgba(23, 23, 23, 1)" stroke-width="1.5"/>
<path d="m663.29 524.21 36.76 113.52" stroke="rgba(23, 23, 23, 1)" stroke-width="1.5"/>
<path d="m700.05 637.73" stroke="rgba(23, 23, 23, 1)" stroke-width="1.5"/>
<path d="m700.05 637.73 144.99 39.96" stroke="rgba(23, 23, 23, 1)" stroke-width="1.5"/>
<path d="m818.43 244.05" stroke="rgba(23, 23, 23, 1)" stroke-width="1.5"/>
<path d="m818.43 244.05 4.71 112.91" stroke="rgba(23, 23, 23, 1)" stroke-width="1.5"/>
<path d="m818.43 244.05 190.94 11.59" stroke="rgba(23, 23, 23, 1)" stroke-width="1.5"/>
<path d="m823.14 356.96" stroke="rgba(23, 23, 23, 1)" stroke-width="1.5"/>
<path d="m823.14 356.96-173.63 5.84" stroke="rgba(23, 23, 23, 1)" stroke-width="1.5"/>
<path d="m823.14 356.96 186.23-101.32" stroke="rgba(23, 23, 23, 1)" stroke-width="1.5"/>
<path d="m823.14 356.96 121.32 174.88" stroke="rgba(23, 23, 23, 1)" stroke-width="1.5"/>
<path d="m845.04 677.69" stroke="rgba(23, 23, 23, 1)" stroke-width="1.5"/>
<path d="m845.04 677.69 126.03-12.12" stroke="rgba(23, 23, 23, 1)" stroke-width="1.5"/>
<path d="m845.04 677.69 99.42-145.85" stroke="rgba(23, 23, 23, 1)" stroke-width="1.5"/>
<path d="m991.72-85.3" stroke="rgba(23, 23, 23, 1)" stroke-width="1.5"/>
<path d="m991.72-85.3 125.93 40.55" stroke="rgba(23, 23, 23, 1)" stroke-width="1.5"/>
<path d="m1011.3 89.82" stroke="rgba(23, 23, 23, 1)" stroke-width="1.5"/>
<path d="m1011.3 89.82 143.57 11.25" stroke="rgba(23, 23, 23, 1)" stroke-width="1.5"/>
<path d="m1011.3 89.82-1.89 165.82" stroke="rgba(23, 23, 23, 1)" stroke-width="1.5"/>
<path d="m1011.3 89.82 106.39-134.57" stroke="rgba(23, 23, 23, 1)" stroke-width="1.5"/>
<path d="m1011.3 89.82-19.54-175.12" stroke="rgba(23, 23, 23, 1)" stroke-width="1.5"/>
<path d="m1011.3 89.82 118.36 158.43" stroke="rgba(23, 23, 23, 1)" stroke-width="1.5"/>
<path d="m1011.3 89.82-192.83 154.23" stroke="rgba(23, 23, 23, 1)" stroke-width="1.5"/>
<path d="m1009.4 255.64" stroke="rgba(23, 23, 23, 1)" stroke-width="1.5"/>
<path d="m1009.4 255.64 120.25-7.39" stroke="rgba(23, 23, 23, 1)" stroke-width="1.5"/>
<path d="m944.46 531.84" stroke="rgba(23, 23, 23, 1)" stroke-width="1.5"/>
<path d="m944.46 531.84 26.61 133.73" stroke="rgba(23, 23, 23, 1)" stroke-width="1.5"/>
<path d="m944.46 531.84 177.38-22.35" stroke="rgba(23, 23, 23, 1)" stroke-width="1.5"/>
<path d="m944.46 531.84 176.14 170.11" stroke="rgba(23, 23, 23, 1)" stroke-width="1.5"/>
<path d="m971.07 665.57" stroke="rgba(23, 23, 23, 1)" stroke-width="1.5"/>
<path d="m971.07 665.57 149.53 36.38" stroke="rgba(23, 23, 23, 1)" stroke-width="1.5"/>
<path d="m971.07 665.57 150.77-156.08" stroke="rgba(23, 23, 23, 1)" stroke-width="1.5"/>
<path d="m971.07 665.57-271.02-27.84" stroke="rgba(23, 23, 23, 1)" stroke-width="1.5"/>
<path d="m1117.6-44.75" stroke="rgba(23, 23, 23, 1)" stroke-width="1.5"/>
<path d="m1117.6-44.75 37.18 145.82" stroke="rgba(23, 23, 23, 1)" stroke-width="1.5"/>
<path d="m1117.6-44.75 152.68-7.96" stroke="rgba(23, 23, 23, 1)" stroke-width="1.5"/>
<path d="m1117.6-44.75 191.84 120.4" stroke="rgba(23, 23, 23, 1)" stroke-width="1.5"/>
<path d="m1154.8 101.07" stroke="rgba(23, 23, 23, 1)" stroke-width="1.5"/>
<path d="m1154.8 101.07 106.29 103.79" stroke="rgba(23, 23, 23, 1)" stroke-width="1.5"/>
<path d="m1154.8 101.07-25.21 147.18" stroke="rgba(23, 23, 23, 1)" stroke-width="1.5"/>
<path d="m1129.6 248.25" stroke="rgba(23, 23, 23, 1)" stroke-width="1.5"/>
<path d="m1129.6 248.25 131.5-43.39" stroke="rgba(23, 23, 23, 1)" stroke-width="1.5"/>
<path d="m1129.6 248.25 17.42 141.35" stroke="rgba(23, 23, 23, 1)" stroke-width="1.5"/>
<path d="m1129.6 248.25 130.93 102.8" stroke="rgba(23, 23, 23, 1)" stroke-width="1.5"/>
<path d="m1147 389.6" stroke="rgba(23, 23, 23, 1)" stroke-width="1.5"/>
<path d="m1147 389.6 113.51-38.55" stroke="rgba(23, 23, 23, 1)" stroke-width="1.5"/>
<path d="m1147 389.6-25.2 119.89" stroke="rgba(23, 23, 23, 1)" stroke-width="1.5"/>
<path d="m1147 389.6-137.67-133.96" stroke="rgba(23, 23, 23, 1)" stroke-width="1.5"/>
<path d="m1147 389.6 114.08-184.74" stroke="rgba(23, 23, 23, 1)" stroke-width="1.5"/>
<path d="m1121.8 509.49" stroke="rgba(23, 23, 23, 1)" stroke-width="1.5"/>
<path d="m1121.8 509.49 186.98 31.31" stroke="rgba(23, 23, 23, 1)" stroke-width="1.5"/>
<path d="m1121.8 509.49-1.24 192.46" stroke="rgba(23, 23, 23, 1)" stroke-width="1.5"/>
<path d="m1121.8 509.49 144.9 129.9" stroke="rgba(23, 23, 23, 1)" stroke-width="1.5"/>
<path d="m1120.6 701.95" stroke="rgba(23, 23, 23, 1)" stroke-width="1.5"/>
<path d="m1120.6 701.95 146.14-62.56" stroke="rgba(23, 23, 23, 1)" stroke-width="1.5"/>
<path d="m1270.3-52.71" stroke="rgba(23, 23, 23, 1)" stroke-width="1.5"/>
<path d="m1270.3-52.71 39.16 128.36" stroke="rgba(23, 23, 23, 1)" stroke-width="1.5"/>
<path d="m1270.3-52.71 150.74-23.76" stroke="rgba(23, 23, 23, 1)" stroke-width="1.5"/>
<path d="m1270.3-52.71-115.5 153.78" stroke="rgba(23, 23, 23, 1)" stroke-width="1.5"/>
<path d="m1270.3-52.71 176.22 122.61" stroke="rgba(23, 23, 23, 1)" stroke-width="1.5"/>
<path d="m1270.3-52.71-9.21 257.57" stroke="rgba(23, 23, 23, 1)" stroke-width="1.5"/>
<path d="m1309.5 75.65" stroke="rgba(23, 23, 23, 1)" stroke-width="1.5"/>
<path d="m1309.5 75.65 137.06-5.75" stroke="rgba(23, 23, 23, 1)" stroke-width="1.5"/>
<path d="m1309.5 75.65-48.37 129.21" stroke="rgba(23, 23, 23, 1)" stroke-width="1.5"/>
<path d="m1309.5 75.65-154.66 25.42" stroke="rgba(23, 23, 23, 1)" stroke-width="1.5"/>
<path d="m1309.5 75.65 111.58-152.12" stroke="rgba(23, 23, 23, 1)" stroke-width="1.5"/>
<path d="m1261.1 204.86" stroke="rgba(23, 23, 23, 1)" stroke-width="1.5"/>
<path d="m1261.1 204.86-0.57 146.19" stroke="rgba(23, 23, 23, 1)" stroke-width="1.5"/>
<path d="m1260.6 351.05" stroke="rgba(23, 23, 23, 1)" stroke-width="1.5"/>
<path d="m1308.8 540.8" stroke="rgba(23, 23, 23, 1)" stroke-width="1.5"/>
<path d="m1308.8 540.8 82.38-53.3" stroke="rgba(23, 23, 23, 1)" stroke-width="1.5"/>
<path d="m1308.8 540.8-42.08 98.59" stroke="rgba(23, 23, 23, 1)" stroke-width="1.5"/>
<path d="m1308.8 540.8 125.01 127.21" stroke="rgba(23, 23, 23, 1)" stroke-width="1.5"/>
<path d="m1308.8 540.8-48.27-189.75" stroke="rgba(23, 23, 23, 1)" stroke-width="1.5"/>
<path d="m1266.7 639.39" stroke="rgba(23, 23, 23, 1)" stroke-width="1.5"/>
<path d="m1266.7 639.39 167.09 28.62" stroke="rgba(23, 23, 23, 1)" stroke-width="1.5"/>
<path d="m1421.1-76.47" stroke="rgba(23, 23, 23, 1)" stroke-width="1.5"/>
<path d="m1421.1-76.47 25.48 146.37" stroke="rgba(23, 23, 23, 1)" stroke-width="1.5"/>
<path d="m1421.1-76.47 170.23 33.33" stroke="rgba(23, 23, 23, 1)" stroke-width="1.5"/>
<path d="m1421.1-76.47 165.66 184.16" stroke="rgba(23, 23, 23, 1)" stroke-width="1.5"/>
<path d="m1421.1-76.47 29.94 299.43" stroke="rgba(23, 23, 23, 1)" stroke-width="1.5"/>
<path d="m1446.6 69.9" stroke="rgba(23, 23, 23, 1)" stroke-width="1.5"/>
<path d="m1446.6 69.9 140.18 37.79" stroke="rgba(23, 23, 23, 1)" stroke-width="1.5"/>
<path d="m1446.6 69.9 4.46 153.06" stroke="rgba(23, 23, 23, 1)" stroke-width="1.5"/>
<path d="m1446.6 69.9 144.75-113.04" stroke="rgba(23, 23, 23, 1)" stroke-width="1.5"/>
<path d="m1451 222.96" stroke="rgba(23, 23, 23, 1)" stroke-width="1.5"/>
<path d="m1451 222.96 121.82-10.01" stroke="rgba(23, 23, 23, 1)" stroke-width="1.5"/>
<path d="m1451 222.96 135.72-115.27" stroke="rgba(23, 23, 23, 1)" stroke-width="1.5"/>
<path d="m1451 222.96-189.89-18.1" stroke="rgba(23, 23, 23, 1)" stroke-width="1.5"/>
<path d="m1391.2 487.5" stroke="rgba(23, 23, 23, 1)" stroke-width="1.5"/>
<path d="m1391.2 487.5 172.8 66.96" stroke="rgba(23, 23, 23, 1)" stroke-width="1.5"/>
<path d="m1391.2 487.5 42.63 180.51" stroke="rgba(23, 23, 23, 1)" stroke-width="1.5"/>
<path d="m1391.2 487.5-130.65-136.45" stroke="rgba(23, 23, 23, 1)" stroke-width="1.5"/>
<path d="m1433.8 668.01" stroke="rgba(23, 23, 23, 1)" stroke-width="1.5"/>
<path d="M1433.83 668.01L1564 554.46" stroke="rgba(23, 23, 23, 1)" stroke-width="1.5"/>
<path d="m1591.3-43.14" stroke="rgba(23, 23, 23, 1)" stroke-width="1.5"/>
<path d="m1591.3-43.14-4.57 150.83" stroke="rgba(23, 23, 23, 1)" stroke-width="1.5"/>
<path d="m1586.7 107.69" stroke="rgba(23, 23, 23, 1)" stroke-width="1.5"/>
<path d="m1586.7 107.69-13.9 105.26" stroke="rgba(23, 23, 23, 1)" stroke-width="1.5"/>
<path d="m1572.8 212.95" stroke="rgba(23, 23, 23, 1)" stroke-width="1.5"/>
<path d="m1572.8 212.95 17.35 157.06" stroke="rgba(23, 23, 23, 1)" stroke-width="1.5"/>
<path d="m1572.8 212.95-126.28-143.05" stroke="rgba(23, 23, 23, 1)" stroke-width="1.5"/>
<path d="m1572.8 212.95 18.47-256.09" stroke="rgba(23, 23, 23, 1)" stroke-width="1.5"/>
<path d="m1572.8 212.95-263.34-137.3" stroke="rgba(23, 23, 23, 1)" stroke-width="1.5"/>
<path d="m1590.2 370.01" stroke="rgba(23, 23, 23, 1)" stroke-width="1.5"/>
<path d="m1590.2 370.01-26.18 184.45" stroke="rgba(23, 23, 23, 1)" stroke-width="1.5"/>
<path d="m1590.2 370.01-139.17-147.05" stroke="rgba(23, 23, 23, 1)" stroke-width="1.5"/>
<path d="m1590.2 370.01-198.98 117.49" stroke="rgba(23, 23, 23, 1)" stroke-width="1.5"/>
<path d="m1590.2 370.01-3.45-262.32" stroke="rgba(23, 23, 23, 1)" stroke-width="1.5"/>
<path d="m1564 554.46" stroke="rgba(23, 23, 23, 1)" stroke-width="1.5"/>
<path d="m1564 554.46 42.9 120.72" stroke="rgba(23, 23, 23, 1)" stroke-width="1.5"/>
<path d="m1606.9 675.18" stroke="rgba(23, 23, 23, 1)" stroke-width="1.5"/>
<path d="m1606.9 675.18-173.07-7.17" stroke="rgba(23, 23, 23, 1)" stroke-width="1.5"/>
<path d="m1606.9 675.18-215.7-187.68" stroke="rgba(23, 23, 23, 1)" stroke-width="1.5"/>
<path d="m1606.9 675.18-16.72-305.17" stroke="rgba(23, 23, 23, 1)" stroke-width="1.5"/>
<path d="m1606.9 675.18-298.08-134.38" stroke="rgba(23, 23, 23, 1)" stroke-width="1.5"/>
<circle cx="-103.05" cy="380.24" r="5" fill="rgba(23, 23, 23, 1)"/>
<circle cx="-84.28" cy="509.26" r="5" fill="rgba(23, 23, 23, 1)"/>
<circle cx="-72.33" cy="683.01" r="5" fill="rgba(23, 23, 23, 1)"/>
<circle cx="77.33" cy="342.37" r="5" fill="rgba(23, 23, 23, 1)"/>
<circle cx="92.13" cy="498.8" r="5" fill="rgba(23, 23, 23, 1)"/>
<circle cx="60.82" cy="679.61" r="5" fill="rgba(23, 23, 23, 1)"/>
<circle cx="189.66" cy="373.39" r="5" fill="rgba(23, 23, 23, 1)"/>
<circle cx="225.11" cy="667.65" r="5" fill="rgba(23, 23, 23, 1)"/>
<circle cx="367.06" cy="368.23" r="5" fill="rgba(23, 23, 23, 1)"/>
<circle cx="351.58" cy="546.36" r="5" fill="rgba(23, 23, 23, 1)"/>
<circle cx="353.38" cy="685.99" r="5" fill="rgba(23, 23, 23, 1)"/>
<circle cx="498.92" cy="406.17" r="5" fill="rgba(23, 23, 23, 1)"/>
<circle cx="559.63" cy="554.74" r="5" fill="rgba(23, 23, 23, 1)"/>
<circle cx="522.28" cy="675.76" r="5" fill="rgba(23, 23, 23, 1)"/>
<circle cx="649.51" cy="362.8" r="5" fill="rgba(23, 23, 23, 1)"/>
<circle cx="663.29" cy="524.21" r="5" fill="rgba(23, 23, 23, 1)"/>
<circle cx="700.05" cy="637.73" r="5" fill="rgba(23, 23, 23, 1)"/>
<circle cx="818.43" cy="244.05" r="5" fill="rgba(23, 23, 23, 1)"/>
<circle cx="823.14" cy="356.96" r="5" fill="rgba(23, 23, 23, 1)"/>
<circle cx="845.04" cy="677.69" r="5" fill="rgba(23, 23, 23, 1)"/>
<circle cx="991.72" cy="-85.3" r="5" fill="rgba(23, 23, 23, 1)"/>
<circle cx="1011.3" cy="89.82" r="5" fill="rgba(23, 23, 23, 1)"/>
<circle cx="1009.4" cy="255.64" r="5" fill="rgba(23, 23, 23, 1)"/>
<circle cx="944.46" cy="531.84" r="5" fill="rgba(23, 23, 23, 1)"/>
<circle cx="971.07" cy="665.57" r="5" fill="rgba(23, 23, 23, 1)"/>
<circle cx="1117.6" cy="-44.75" r="5" fill="rgba(23, 23, 23, 1)"/>
<circle cx="1154.8" cy="101.07" r="5" fill="rgba(23, 23, 23, 1)"/>
<circle cx="1129.6" cy="248.25" r="5" fill="rgba(23, 23, 23, 1)"/>
<circle cx="1147" cy="389.6" r="5" fill="rgba(23, 23, 23, 1)"/>
<circle cx="1121.8" cy="509.49" r="5" fill="rgba(23, 23, 23, 1)"/>
<circle cx="1120.6" cy="701.95" r="5" fill="rgba(23, 23, 23, 1)"/>
<circle cx="1270.3" cy="-52.71" r="5" fill="rgba(23, 23, 23, 1)"/>
<circle cx="1309.5" cy="75.65" r="5" fill="rgba(23, 23, 23, 1)"/>
<circle cx="1261.1" cy="204.86" r="5" fill="rgba(23, 23, 23, 1)"/>
<circle cx="1260.6" cy="351.05" r="5" fill="rgba(23, 23, 23, 1)"/>
<circle cx="1308.8" cy="540.8" r="5" fill="rgba(23, 23, 23, 1)"/>
<circle cx="1266.7" cy="639.39" r="5" fill="rgba(23, 23, 23, 1)"/>
<circle cx="1421.1" cy="-76.47" r="5" fill="rgba(23, 23, 23, 1)"/>
<circle cx="1446.6" cy="69.9" r="5" fill="rgba(23, 23, 23, 1)"/>
<circle cx="1451" cy="222.96" r="5" fill="rgba(23, 23, 23, 1)"/>
<circle cx="1391.2" cy="487.5" r="5" fill="rgba(23, 23, 23, 1)"/>
<circle cx="1433.8" cy="668.01" r="5" fill="rgba(23, 23, 23, 1)"/>
<circle cx="1591.3" cy="-43.14" r="5" fill="rgba(23, 23, 23, 1)"/>
<circle cx="1586.7" cy="107.69" r="5" fill="rgba(23, 23, 23, 1)"/>
<circle cx="1572.8" cy="212.95" r="5" fill="rgba(23, 23, 23, 1)"/>
<circle cx="1590.2" cy="370.01" r="5" fill="rgba(23, 23, 23, 1)"/>
<circle cx="1564" cy="554.46" r="5" fill="rgba(23, 23, 23, 1)"/>
<circle cx="1606.9" cy="675.18" r="5" fill="rgba(23, 23, 23, 1)"/>
<path d="m-78.74 650.77" stroke="hsl(0, 0%, 35.2%)" stroke-width="1.5"/>
<path d="m-78.74 650.77 139.7 41.35" stroke="hsl(0, 0%, 35.2%)" stroke-width="1.5"/>
<path d="m-78.74 650.77 13.78-159.6" stroke="hsl(0, 0%, 35.2%)" stroke-width="1.5"/>
<path d="M-78.74 650.77L57.77 502.01" stroke="hsl(0, 0%, 35.2%)" stroke-width="1.5"/>
<path d="m-78.74 650.77 300.29 16.77" stroke="hsl(0, 0%, 35.2%)" stroke-width="1.5"/>
<path d="m-78.74 650.77 433.84 57.55" stroke="hsl(0, 0%, 35.2%)" stroke-width="1.5"/>
<path d="m221.55 667.54" stroke="hsl(0, 0%, 35.2%)" stroke-width="1.5"/>
<path d="m221.55 667.54 133.55 40.78" stroke="hsl(0, 0%, 35.2%)" stroke-width="1.5"/>
<path d="m221.55 667.54-160.59 24.58" stroke="hsl(0, 0%, 35.2%)" stroke-width="1.5"/>
<path d="m221.55 667.54 124.32-177.41" stroke="hsl(0, 0%, 35.2%)" stroke-width="1.5"/>
<path d="M221.55 667.54L57.77 502.01" stroke="hsl(0, 0%, 35.2%)" stroke-width="1.5"/>
<path d="m221.55 667.54 291.38 29.57" stroke="hsl(0, 0%, 35.2%)" stroke-width="1.5"/>
<path d="m355.1 708.32" stroke="hsl(0, 0%, 35.2%)" stroke-width="1.5"/>
<path d="m355.1 708.32 157.83-11.21" stroke="hsl(0, 0%, 35.2%)" stroke-width="1.5"/>
<path d="m988.76 389.27" stroke="hsl(0, 0%, 35.2%)" stroke-width="1.5"/>
<path d="m988.76 389.27 14.12 159.53" stroke="hsl(0, 0%, 35.2%)" stroke-width="1.5"/>
<path d="m988.76 389.27-189.82 14.87" stroke="hsl(0, 0%, 35.2%)" stroke-width="1.5"/>
<path d="m978.88 643.63" stroke="hsl(0, 0%, 35.2%)" stroke-width="1.5"/>
<path d="m978.88 643.63 24-94.83" stroke="hsl(0, 0%, 35.2%)" stroke-width="1.5"/>
<path d="m978.88 643.63 130.51 30.94" stroke="hsl(0, 0%, 35.2%)" stroke-width="1.5"/>
<path d="m978.88 643.63-141.93 7.77" stroke="hsl(0, 0%, 35.2%)" stroke-width="1.5"/>
<path d="m978.88 643.63 119.55-92.67" stroke="hsl(0, 0%, 35.2%)" stroke-width="1.5"/>
<path d="m978.88 643.63-126.4-87.29" stroke="hsl(0, 0%, 35.2%)" stroke-width="1.5"/>
<path d="m1250 559.03" stroke="hsl(0, 0%, 35.2%)" stroke-width="1.5"/>
<path d="m1250 559.03 51.15 92.82" stroke="hsl(0, 0%, 35.2%)" stroke-width="1.5"/>
<path d="m1250 559.03-151.62-8.07" stroke="hsl(0, 0%, 35.2%)" stroke-width="1.5"/>
<path d="m1250 559.03 178.81-6.15" stroke="hsl(0, 0%, 35.2%)" stroke-width="1.5"/>
<path d="m1250 559.03-140.66 115.54" stroke="hsl(0, 0%, 35.2%)" stroke-width="1.5"/>
<path d="m1250 559.03 153.44 107.52" stroke="hsl(0, 0%, 35.2%)" stroke-width="1.5"/>
<path d="m1250 559.03 140.71-199.52" stroke="hsl(0, 0%, 35.2%)" stroke-width="1.5"/>
<path d="m1540.8 498.97" stroke="hsl(0, 0%, 35.2%)" stroke-width="1.5"/>
<path d="m1540.8 498.97 56.89-96.47" stroke="hsl(0, 0%, 35.2%)" stroke-width="1.5"/>
<path d="m1540.8 498.97-111.94 53.91" stroke="hsl(0, 0%, 35.2%)" stroke-width="1.5"/>
<path d="m1540.8 498.97 65.11 146.58" stroke="hsl(0, 0%, 35.2%)" stroke-width="1.5"/>
<path d="m1605.9 645.55" stroke="hsl(0, 0%, 35.2%)" stroke-width="1.5"/>
<path d="m1605.9 645.55-177.05-92.67" stroke="hsl(0, 0%, 35.2%)" stroke-width="1.5"/>
<path d="m1605.9 645.55-202.42 21" stroke="hsl(0, 0%, 35.2%)" stroke-width="1.5"/>
<path d="m1605.9 645.55-8.22-243.05" stroke="hsl(0, 0%, 35.2%)" stroke-width="1.5"/>
<path d="m-64.96 491.17" stroke="hsl(0, 0%, 35.2%)" stroke-width="1.5"/>
<path d="m-64.96 491.17 122.73 10.84" stroke="hsl(0, 0%, 35.2%)" stroke-width="1.5"/>
<path d="M-64.96 491.17L60.96 692.12" stroke="hsl(0, 0%, 35.2%)" stroke-width="1.5"/>
<path d="m-64.96 491.17 286.51 176.37" stroke="hsl(0, 0%, 35.2%)" stroke-width="1.5"/>
<path d="m-64.96 491.17 410.83-1.04" stroke="hsl(0, 0%, 35.2%)" stroke-width="1.5"/>
<path d="m57.77 502.01" stroke="hsl(0, 0%, 35.2%)" stroke-width="1.5"/>
<path d="m57.77 502.01 3.19 190.11" stroke="hsl(0, 0%, 35.2%)" stroke-width="1.5"/>
<path d="m57.77 502.01 288.1-11.88" stroke="hsl(0, 0%, 35.2%)" stroke-width="1.5"/>
<path d="M57.77 502.01L355.1 708.32" stroke="hsl(0, 0%, 35.2%)" stroke-width="1.5"/>
<path d="m60.96 692.12" stroke="hsl(0, 0%, 35.2%)" stroke-width="1.5"/>
<path d="m345.87 490.13" stroke="hsl(0, 0%, 35.2%)" stroke-width="1.5"/>
<path d="m345.87 490.13 200 49.5" stroke="hsl(0, 0%, 35.2%)" stroke-width="1.5"/>
<path d="m345.87 490.13 9.23 218.19" stroke="hsl(0, 0%, 35.2%)" stroke-width="1.5"/>
<path d="m345.87 490.13 167.06 206.98" stroke="hsl(0, 0%, 35.2%)" stroke-width="1.5"/>
<path d="m545.87 539.63" stroke="hsl(0, 0%, 35.2%)" stroke-width="1.5"/>
<path d="m545.87 539.63 99.19 13.04" stroke="hsl(0, 0%, 35.2%)" stroke-width="1.5"/>
<path d="m545.87 539.63-32.94 157.48" stroke="hsl(0, 0%, 35.2%)" stroke-width="1.5"/>
<path d="m512.93 697.11" stroke="hsl(0, 0%, 35.2%)" stroke-width="1.5"/>
<path d="m512.93 697.11 130.68 5.56" stroke="hsl(0, 0%, 35.2%)" stroke-width="1.5"/>
<path d="m512.93 697.11 132.13-144.44" stroke="hsl(0, 0%, 35.2%)" stroke-width="1.5"/>
<path d="m645.06 552.67" stroke="hsl(0, 0%, 35.2%)" stroke-width="1.5"/>
<path d="m645.06 552.67-1.45 150" stroke="hsl(0, 0%, 35.2%)" stroke-width="1.5"/>
<path d="m645.06 552.67 207.42 3.67" stroke="hsl(0, 0%, 35.2%)" stroke-width="1.5"/>
<path d="m643.61 702.67" stroke="hsl(0, 0%, 35.2%)" stroke-width="1.5"/>
<path d="m643.61 702.67-97.74-163.04" stroke="hsl(0, 0%, 35.2%)" stroke-width="1.5"/>
<path d="m643.61 702.67 193.34-51.27" stroke="hsl(0, 0%, 35.2%)" stroke-width="1.5"/>
<path d="m798.94 404.14" stroke="hsl(0, 0%, 35.2%)" stroke-width="1.5"/>
<path d="m798.94 404.14 53.54 152.2" stroke="hsl(0, 0%, 35.2%)" stroke-width="1.5"/>
<path d="m798.94 404.14-153.88 148.53" stroke="hsl(0, 0%, 35.2%)" stroke-width="1.5"/>
<path d="m852.48 556.34" stroke="hsl(0, 0%, 35.2%)" stroke-width="1.5"/>
<path d="m852.48 556.34-15.53 95.06" stroke="hsl(0, 0%, 35.2%)" stroke-width="1.5"/>
<path d="m852.48 556.34 150.4-7.54" stroke="hsl(0, 0%, 35.2%)" stroke-width="1.5"/>
<path d="m836.95 651.4" stroke="hsl(0, 0%, 35.2%)" stroke-width="1.5"/>
<path d="m836.95 651.4 165.93-102.6" stroke="hsl(0, 0%, 35.2%)" stroke-width="1.5"/>
<path d="m836.95 651.4-191.89-98.73" stroke="hsl(0, 0%, 35.2%)" stroke-width="1.5"/>
<path d="m836.95 651.4-38.01-247.26" stroke="hsl(0, 0%, 35.2%)" stroke-width="1.5"/>
<path d="m1002.9 548.8" stroke="hsl(0, 0%, 35.2%)" stroke-width="1.5"/>
<path d="m1002.9 548.8 95.55 2.16" stroke="hsl(0, 0%, 35.2%)" stroke-width="1.5"/>
<path d="m1152.1 101.6" stroke="hsl(0, 0%, 35.2%)" stroke-width="1.5"/>
<path d="m1152.1 101.6 86.57-27.04" stroke="hsl(0, 0%, 35.2%)" stroke-width="1.5"/>
<path d="m1152.1 101.6-17.71 127.51" stroke="hsl(0, 0%, 35.2%)" stroke-width="1.5"/>
<path d="m1152.1 101.6 92.36 144.03" stroke="hsl(0, 0%, 35.2%)" stroke-width="1.5"/>
<path d="m1134.4 229.11" stroke="hsl(0, 0%, 35.2%)" stroke-width="1.5"/>
<path d="m1134.4 229.11 110.07 16.52" stroke="hsl(0, 0%, 35.2%)" stroke-width="1.5"/>
<path d="m1134.4 229.11 104.28-154.55" stroke="hsl(0, 0%, 35.2%)" stroke-width="1.5"/>
<path d="m1098.4 550.96" stroke="hsl(0, 0%, 35.2%)" stroke-width="1.5"/>
<path d="m1098.4 550.96 10.96 123.61" stroke="hsl(0, 0%, 35.2%)" stroke-width="1.5"/>
<path d="m1109.4 674.57" stroke="hsl(0, 0%, 35.2%)" stroke-width="1.5"/>
<path d="m1109.4 674.57-106.51-125.77" stroke="hsl(0, 0%, 35.2%)" stroke-width="1.5"/>
<path d="m1109.4 674.57 191.81-22.72" stroke="hsl(0, 0%, 35.2%)" stroke-width="1.5"/>
<path d="m1109.4 674.57-272.44-23.17" stroke="hsl(0, 0%, 35.2%)" stroke-width="1.5"/>
<path d="m1295-89.71" stroke="hsl(0, 0%, 35.2%)" stroke-width="1.5"/>
<path d="m1295-89.71-56.32 164.27" stroke="hsl(0, 0%, 35.2%)" stroke-width="1.5"/>
<path d="m1295-89.71 147.19 146.61" stroke="hsl(0, 0%, 35.2%)" stroke-width="1.5"/>
<path d="m1238.7 74.56" stroke="hsl(0, 0%, 35.2%)" stroke-width="1.5"/>
<path d="m1238.7 74.56 5.79 171.07" stroke="hsl(0, 0%, 35.2%)" stroke-width="1.5"/>
<path d="m1244.5 245.63" stroke="hsl(0, 0%, 35.2%)" stroke-width="1.5"/>
<path d="m1244.5 245.63 146.27 113.88" stroke="hsl(0, 0%, 35.2%)" stroke-width="1.5"/>
<path d="m1244.5 245.63 197.72-188.73" stroke="hsl(0, 0%, 35.2%)" stroke-width="1.5"/>
<path d="m1301.2 651.85" stroke="hsl(0, 0%, 35.2%)" stroke-width="1.5"/>
<path d="m1301.2 651.85 102.29 14.7" stroke="hsl(0, 0%, 35.2%)" stroke-width="1.5"/>
<path d="m1442.2 56.9" stroke="hsl(0, 0%, 35.2%)" stroke-width="1.5"/>
<path d="m1442.2 56.9 157.24 38.61" stroke="hsl(0, 0%, 35.2%)" stroke-width="1.5"/>
<path d="m1442.2 56.9-203.51 17.66" stroke="hsl(0, 0%, 35.2%)" stroke-width="1.5"/>
<path d="m1442.2 56.9 118.6 188.56" stroke="hsl(0, 0%, 35.2%)" stroke-width="1.5"/>
<path d="m1390.8 359.51" stroke="hsl(0, 0%, 35.2%)" stroke-width="1.5"/>
<path d="m1390.8 359.51 38.1 193.37" stroke="hsl(0, 0%, 35.2%)" stroke-width="1.5"/>
<path d="m1390.8 359.51 170.05-114.05" stroke="hsl(0, 0%, 35.2%)" stroke-width="1.5"/>
<path d="m1390.8 359.51 150.04 139.46" stroke="hsl(0, 0%, 35.2%)" stroke-width="1.5"/>
<path d="m1390.8 359.51 206.93 42.99" stroke="hsl(0, 0%, 35.2%)" stroke-width="1.5"/>
<path d="m1428.9 552.88" stroke="hsl(0, 0%, 35.2%)" stroke-width="1.5"/>
<path d="m1428.9 552.88-25.37 113.67" stroke="hsl(0, 0%, 35.2%)" stroke-width="1.5"/>
<path d="m1428.9 552.88-127.66 98.97" stroke="hsl(0, 0%, 35.2%)" stroke-width="1.5"/>
<path d="m1403.5 666.55" stroke="hsl(0, 0%, 35.2%)" stroke-width="1.5"/>
<path d="m1612.4-100.78" stroke="hsl(0, 0%, 35.2%)" stroke-width="1.5"/>
<path d="m1612.4-100.78-12.98 196.29" stroke="hsl(0, 0%, 35.2%)" stroke-width="1.5"/>
<path d="m1612.4-100.78-170.22 157.68" stroke="hsl(0, 0%, 35.2%)" stroke-width="1.5"/>
<path d="m1612.4-100.78-317.41 11.07" stroke="hsl(0, 0%, 35.2%)" stroke-width="1.5"/>
<path d="m1612.4-100.78-51.62 346.24" stroke="hsl(0, 0%, 35.2%)" stroke-width="1.5"/>
<path d="m1612.4-100.78-373.73 175.34" stroke="hsl(0, 0%, 35.2%)" stroke-width="1.5"/>
<path d="m1612.4-100.78-460.3 202.38" stroke="hsl(0, 0%, 35.2%)" stroke-width="1.5"/>
<path d="m1599.4 95.51" stroke="hsl(0, 0%, 35.2%)" stroke-width="1.5"/>
<path d="m1599.4 95.51-38.64 149.95" stroke="hsl(0, 0%, 35.2%)" stroke-width="1.5"/>
<path d="m1560.8 245.46" stroke="hsl(0, 0%, 35.2%)" stroke-width="1.5"/>
<path d="m1597.7 402.5" stroke="hsl(0, 0%, 35.2%)" stroke-width="1.5"/>
<path d="m1597.7 402.5-36.88-157.04" stroke="hsl(0, 0%, 35.2%)" stroke-width="1.5"/>
<path d="m1597.7 402.5-168.83 150.38" stroke="hsl(0, 0%, 35.2%)" stroke-width="1.5"/>
<path d="m1597.7 402.5 1.76-306.99" stroke="hsl(0, 0%, 35.2%)" stroke-width="1.5"/>
<circle cx="-78.74" cy="650.77" r="25" fill="url(#a)"/>
<circle cx="221.55" cy="667.54" r="25" fill="url(#a)"/>
<circle cx="355.1" cy="708.32" r="25" fill="url(#a)"/>
<circle cx="988.76" cy="389.27" r="25" fill="url(#a)"/>
<circle cx="978.88" cy="643.63" r="25" fill="url(#a)"/>
<circle cx="1250" cy="559.03" r="25" fill="url(#a)"/>
<circle cx="1540.8" cy="498.97" r="25" fill="url(#a)"/>
<circle cx="1605.9" cy="645.55" r="25" fill="url(#a)"/>
<circle cx="-64.96" cy="491.17" r="5" fill="#a2a2a2"/>
<circle cx="57.77" cy="502.01" r="5" fill="#a2a2a2"/>
<circle cx="60.96" cy="692.12" r="5" fill="#a2a2a2"/>
<circle cx="345.87" cy="490.13" r="5" fill="#a2a2a2"/>
<circle cx="545.87" cy="539.63" r="5" fill="#a2a2a2"/>
<circle cx="512.93" cy="697.11" r="5" fill="#a2a2a2"/>
<circle cx="645.06" cy="552.67" r="5" fill="#a2a2a2"/>
<circle cx="643.61" cy="702.67" r="5" fill="#a2a2a2"/>
<circle cx="798.94" cy="404.14" r="5" fill="#a2a2a2"/>
<circle cx="852.48" cy="556.34" r="5" fill="#a2a2a2"/>
<circle cx="836.95" cy="651.4" r="5" fill="#a2a2a2"/>
<circle cx="1002.9" cy="548.8" r="5" fill="#a2a2a2"/>
<circle cx="1152.1" cy="101.6" r="5" fill="#a2a2a2"/>
<circle cx="1134.4" cy="229.11" r="5" fill="#a2a2a2"/>
<circle cx="1098.4" cy="550.96" r="5" fill="#a2a2a2"/>
<circle cx="1109.4" cy="674.57" r="5" fill="#a2a2a2"/>
<circle cx="1295" cy="-89.71" r="5" fill="#a2a2a2"/>
<circle cx="1238.7" cy="74.56" r="5" fill="#a2a2a2"/>
<circle cx="1244.5" cy="245.63" r="5" fill="#a2a2a2"/>
<circle cx="1301.2" cy="651.85" r="5" fill="#a2a2a2"/>
<circle cx="1442.2" cy="56.9" r="5" fill="#a2a2a2"/>
<circle cx="1390.8" cy="359.51" r="5" fill="#a2a2a2"/>
<circle cx="1428.9" cy="552.88" r="5" fill="#a2a2a2"/>
<circle cx="1403.5" cy="666.55" r="5" fill="#a2a2a2"/>
<circle cx="1612.4" cy="-100.78" r="5" fill="#a2a2a2"/>
<circle cx="1599.4" cy="95.51" r="5" fill="#a2a2a2"/>
<circle cx="1560.8" cy="245.46" r="5" fill="#a2a2a2"/>
<circle cx="1597.7" cy="402.5" r="5" fill="#a2a2a2"/>
</g>
<defs>
<mask id="b">
<rect width="1440" height="560" fill="#fff"/>
</mask>
<radialGradient id="a">
<stop stop-color="#fff" offset=".1"/>
<stop stop-color="rgba(69, 69, 69, 1)" offset=".2"/>
<stop stop-color="rgba(69, 69, 69, 0)" offset="1"/>
</radialGradient>
</defs>
</svg>
